<?xml version="1.0" encoding="utf-8"?>
<!-- Generator: Adobe Illustrator 28.0.0, SVG Export Plug-In . SVG Version: 6.00 Build 0)  -->
<svg version="1.1" id="Calque_1" xmlns="http://www.w3.org/2000/svg" xmlns:xlink="http://www.w3.org/1999/xlink" x="0px" y="0px"
	 viewBox="0 0 64 64" style="enable-background:new 0 0 64 64;" xml:space="preserve">
<style type="text/css">
	.st0{fill:#F04F24;}
	.st1{fill:#F2F2F2;}
	.st2{opacity:0.4;fill:url(#SVGID_1_);}
</style>
<g>
	<path class="st0" d="M39,46.2l-4.8,8.1c-0.9,1.5-3.1,1.5-4,0L5.2,12c-0.9-1.6,0.2-3.5,2-3.5h9.5L24.2,21l7.9,13.4L39,46.2z"/>
	<path class="st1" d="M56.1,8.5c2.3,0,3.7,2.5,2.6,4.5l-4.9,8.3L39,46.2l-7-11.8l7.8-13.2L40,21H28L20.9,8.5H56.1z"/>
	<linearGradient id="SVGID_1_" gradientUnits="userSpaceOnUse" x1="32.5624" y1="40.3475" x2="44.7031" y2="28.6692">
		<stop  offset="2.131116e-08" style="stop-color:#000000"/>
		<stop  offset="1" style="stop-color:#000000;stop-opacity:0"/>
	</linearGradient>
	<polygon class="st2" points="53.8,21.2 39,46.2 32.1,34.4 39.8,21.2 	"/>
</g>
</svg>
